# xmcd
#
# Track frame offsets: 
#        150
#        12805
#        34588
#        50453
#        66128
#        85815
#        99840
#        124927
#        139666
#        163876
#        179361
#        201966
#
# Disc length: 3103 seconds
#
# Revision: 0
# Processed by: cddbd v1.4PL0 Copyright (c) Steve Scherf et al.
# Submitted via: ExactAudioCopy v0.90b4
#
DISCID=9c0c1d0c
DTITLE=Van Morrison - Pier 84, disc 1
DYEAR=1986
DGENRE=Celtic
TTITLE0=Lark Ascending
TTITLE1=Got To Go Back
TTITLE2=Moondance
TTITLE3=Tore Down A La Rimbaud
TTITLE4=Vanlose Stairway
TTITLE5=Northern Muse (Solid Ground)
TTITLE6=A Sense Of Wonder
TTITLE7=The Street Only Knew Your Name
TTITLE8=Ballerina
TTITLE9=She Gives Me Religion
TTITLE10=Haunts Of Ancient Peace
TTITLE11=A Town Called Paradise
EXTD=
EXTT0=
EXTT1=
EXTT2=
EXTT3=
EXTT4=
EXTT5=
EXTT6=
EXTT7=
EXTT8=
EXTT9=
EXTT10=
EXTT11=
PLAYORDER=
